<?xml version="1.0" encoding="utf-8"?>
<svg xmlns="http://www.w3.org/2000/svg" viewBox="163.1769 58.898 172.0834 150.572"
    width="172.0834px" height="150.572px">
    <g transform="matrix(0, 0.027372, 0.027372, 0, -1724.58740685, -1665.0285757)"
        fill="currentColor"
        stroke="none" style="transform-origin: 1954.75px 1794.94px 0px;" id="sidebar-open">
        <path
            d="M 2011.72 2624 C 1972.72 2607 725.712 1370 660.712 1283 C 625.712 1236 621.712 1225 621.712 1171 C 621.712 1005 787.712 901 931.712 975 C 947.712 984 1215.72 1245 1526.72 1556 C 1853.72 1882 2098.72 2120 2107.72 2118 C 2115.72 2116 2374.72 1862 2684.72 1554 C 2993.72 1245 3262.72 984 3281.72 974 C 3304.72 962 3338.72 956 3381.72 955 C 3461.72 955 3501.72 976 3550.72 1044 C 3580.72 1085 3586.72 1104 3589.72 1157 C 3593.72 1218 3591.72 1224 3558.72 1273 C 3500.72 1356 2243.72 2606 2199.72 2625 C 2152.72 2644 2057.72 2644 2011.72 2624 Z" />
        <path
            d="M -1032.6 4455.74 C -1032.6 4889.91 -680.91 5241.58 -246.71 5241.58 L 4468.4 5241.58 C 4902.2 5241.58 5254.24 4889.91 5254.24 4455.74 L 5254.24 526.469 C 5254.24 92.705 4902.2 -259.37 4468.4 -259.37 L -246.71 -259.37 C -680.91 -259.37 -1032.6 92.705 -1032.6 526.469 L -1032.6 4455.74 M 932.047 4848.66 L 932.047 133.549 L 4468.4 133.549 C 4685.3 133.549 4861.32 309.569 4861.32 526.469 L 4861.32 4455.74 C 4861.32 4673.01 4685.3 4848.66 4468.4 4848.66 L 932.047 4848.66 M 539.128 4848.66 L -246.71 4848.66 C -464.01 4848.66 -639.63 4673.01 -639.63 4455.74 L -639.63 526.469 C -639.63 309.569 -464.01 133.549 -246.71 133.549 L 539.128 133.549 L 539.128 4848.66"
            style="transform-origin: 2110.84px 2491.11px 0px;" transform="matrix(0, -1, 1, 0, 0, 0)" />
    </g>
</svg>