<?xml version="1.0" encoding="UTF-8"?>
<svg id="b" data-name="Layer 2" xmlns="http://www.w3.org/2000/svg" viewBox="0 0 382.64 334.81">
  <g id="c" data-name="Layer 5">
    <path d="M49.55,0h283.53c27.37,0,49.55,22.19,49.55,49.55v235.7c0,27.37-22.19,49.55-49.55,49.55H49.55c-27.37,0-49.55-22.19-49.55-49.55V49.55C0,22.19,22.19,0,49.55,0ZM107.65,294.89V39.91h-61.22c-3.6,0-6.52,2.93-6.52,6.53v241.93c0,3.6,2.93,6.52,6.52,6.52h61.22ZM336.2,294.89c3.6,0,6.52-2.93,6.52-6.52V46.44c0-3.6-2.93-6.52-6.52-6.52h-188.63s0,254.97,0,254.97h188.63Z" style="fill: #fff;"/>
  </g>
</svg>