<?xml version="1.0" encoding="UTF-8"?>
<svg id="b" data-name="Layer 2" xmlns="http://www.w3.org/2000/svg" viewBox="0 0 382.64 334.81">
  <g id="c" data-name="sidebar-closed">
    <path d="M49.55,0h283.53c27.37,0,49.55,22.19,49.55,49.55v235.7c0,27.37-22.19,49.55-49.55,49.55H49.55c-27.37,0-49.55-22.19-49.55-49.55V49.55C0,22.19,22.19,0,49.55,0ZM44.81,310.89h291.39c12.44,0,22.52-10.08,22.52-22.52V46.44c0-12.44-10.08-22.52-22.52-22.52H44.81c-11.2,0-20.27,9.07-20.27,20.27v246.43c0,11.2,9.08,20.27,20.27,20.27Z" style="fill: #fff;"/>
  </g>
</svg>