<?xml version="1.0" encoding="UTF-8"?>
<svg id="b" data-name="Layer 2" xmlns="http://www.w3.org/2000/svg" viewBox="0 0 382.64 334.81">
  <g id="c" data-name="Layer 7">
    <path d="M49.55,0h283.53c27.37,0,49.55,22.19,49.55,49.55v235.7c0,27.37-22.19,49.55-49.55,49.55H49.55c-27.37,0-49.55-22.19-49.55-49.55V49.55C0,22.19,22.19,0,49.55,0ZM336.2,294.89c3.6,0,6.52-2.93,6.52-6.52V46.44c0-3.6-2.93-6.52-6.52-6.52H46.44c-3.6,0-6.52,2.93-6.52,6.52v241.93c0,3.6,2.93,6.52,6.52,6.52h289.77M228.55,69.29c-4.82,0-7.49,1.8-10.08,3.54l-.13.09c-4.05,2.83-32.39,31.19-44.38,43.25-40.52,40.74-41.28,42.49-42.08,44.35l-.08.19c-2.1,5.2-2.03,13.52.16,18.56.79,1.8,1.46,3.36,41.58,43.79,9.25,9.32,39.75,39.98,43.97,43.13,4.47,3.33,6.99,4.19,12.28,4.19,8.04,0,15.28-4,19.37-10.7,4-6.56,4.27-14.61.72-21.53l-.08-.15-.08-.15c-.47-.83-1.71-3.05-37.29-38.63-13.89-13.94-23.48-23.74-28.81-29.32,5.58-5.75,15.45-15.79,28.93-29.35,35.56-35.56,36.82-37.96,37.38-39.01,1.38-2.64,2.09-5.95,2.19-10.12v-.21c0-7.87-2.67-13-9.17-17.68-3.88-2.84-6.74-3.84-11.69-4.12-1.03-.07-1.88-.11-2.69-.11,0,0,0,0,0,0Z" style="fill: #fff;"/>
  </g>
</svg>