<?xml version="1.0" encoding="UTF-8"?>
<svg id="b" data-name="Layer 2" xmlns="http://www.w3.org/2000/svg" viewBox="0 0 382.64 334.81">
  <g id="c" data-name="sidebar-close">
    <g>
      <path id="d" data-name="object-0" d="M139.89,175.67c1.05,2.4,77.31,79.29,82.68,83.29,2.9,2.16,3.58,2.4,6.91,2.4,10.23,0,16.65-10.23,12.08-19.11-.55-.99-16.65-17.51-35.82-36.68-20.1-20.16-34.77-35.27-34.65-35.82.12-.49,15.78-16.46,34.77-35.57,19.05-19.05,35.14-35.64,35.76-36.81.74-1.42,1.11-3.51,1.17-6.17,0-4.93-1.29-7.4-5.49-10.42-2.53-1.85-3.7-2.22-6.97-2.4-3.76-.25-4.13-.12-7.15,1.91-5.12,3.58-82.18,81.07-83.36,83.79-1.17,2.9-1.17,8.75.06,11.59Z"/>
      <path d="M49.55,0h283.53c27.37,0,49.55,22.19,49.55,49.55v235.7c0,27.37-22.19,49.55-49.55,49.55H49.55c-27.37,0-49.55-22.19-49.55-49.55V49.55C0,22.19,22.19,0,49.55,0ZM44.81,310.89h291.39c12.44,0,22.52-10.08,22.52-22.52V46.44c0-12.44-10.08-22.52-22.52-22.52H44.81c-11.2,0-20.27,9.07-20.27,20.27v246.43c0,11.2,9.08,20.27,20.27,20.27Z"/>
    </g>
    <g>
      <path id="e" data-name="object-0" d="M139.89,175.67c1.05,2.4,77.31,79.29,82.68,83.29,2.9,2.16,3.58,2.4,6.91,2.4,10.23,0,16.65-10.23,12.08-19.11-.55-.99-16.65-17.51-35.82-36.68-20.1-20.16-34.77-35.27-34.65-35.82.12-.49,15.78-16.46,34.77-35.57,19.05-19.05,35.14-35.64,35.76-36.81.74-1.42,1.11-3.51,1.17-6.17,0-4.93-1.29-7.4-5.49-10.42-2.53-1.85-3.7-2.22-6.97-2.4-3.76-.25-4.13-.12-7.15,1.91-5.12,3.58-82.18,81.07-83.36,83.79-1.17,2.9-1.17,8.75.06,11.59Z" style="fill: #fff;"/>
      <path d="M49.55,0h283.53c27.37,0,49.55,22.19,49.55,49.55v235.7c0,27.37-22.19,49.55-49.55,49.55H49.55c-27.37,0-49.55-22.19-49.55-49.55V49.55C0,22.19,22.19,0,49.55,0ZM44.81,310.89h291.39c12.44,0,22.52-10.08,22.52-22.52V46.44c0-12.44-10.08-22.52-22.52-22.52H44.81c-11.2,0-20.27,9.07-20.27,20.27v246.43c0,11.2,9.08,20.27,20.27,20.27Z" style="fill: #fff;"/>
    </g>
  </g>
</svg>